<svg width="1381" height="238" viewBox="0 0 1381 238" fill="none" xmlns="http://www.w3.org/2000/svg">
<path d="M112.774 169.787L38.7237 109.556L112.774 49.326L112.774 169.787Z" stroke="#FFEA2C" stroke-width="15.66"/>
<path d="M109.254 91.1071H120.604V128.006H109.254V91.1071Z" fill="black"/>
<path d="M112.774 169.787L38.7237 109.556L112.774 49.326L112.774 169.787Z" stroke="#FFEA2C" stroke-width="15.66"/>
<path d="M102.706 91.2801H121.04V127.948H102.706V91.2801Z" fill="black"/>
<path d="M146.985 188.31L221.035 128.08L146.985 67.8498L146.985 188.31Z" stroke="#FFEA2C" stroke-width="15.66"/>
<path d="M157.053 109.688H138.719V146.356H157.053V109.688Z" fill="black"/>
<mask id="path-7-inside-1_0_33" fill="white">
<path d="M182.807 127.714L168.402 115.997L168.402 139.431L182.807 127.714Z"/>
</mask>
<path d="M182.807 127.714L192.689 115.565L207.625 127.714L192.689 139.863L182.807 127.714ZM168.402 115.997L152.742 115.997L152.742 83.0736L178.284 103.848L168.402 115.997ZM168.402 139.431L178.284 151.58L152.742 172.354L152.742 139.431L168.402 139.431ZM172.926 139.863L158.521 128.146L178.284 103.848L192.689 115.565L172.926 139.863ZM184.062 115.997L184.062 139.431L152.742 139.431L152.742 115.997L184.062 115.997ZM158.521 127.282L172.926 115.565L192.689 139.863L178.284 151.58L158.521 127.282Z" fill="#FFEA2C" mask="url(#path-7-inside-1_0_33)"/>
<path d="M361.064 174.714C354.009 174.714 347.691 173.081 342.11 169.817C336.635 166.553 332.265 161.867 329.001 155.76C325.737 149.548 324.105 142.177 324.105 133.648C324.105 125.119 325.737 117.801 329.001 111.693C332.265 105.481 336.688 100.742 342.268 97.4782C347.954 94.214 354.22 92.5819 361.064 92.5819C370.751 92.5819 378.491 95.0038 384.282 99.8474C390.073 104.691 393.759 111.167 395.338 119.275H381.755C380.491 114.958 378.069 111.535 374.489 109.008C370.909 106.376 366.381 105.06 360.906 105.06C356.905 105.06 353.114 106.113 349.534 108.219C345.954 110.324 343.058 113.483 340.847 117.695C338.636 121.907 337.53 127.225 337.53 133.648C337.53 140.071 338.636 145.441 340.847 149.758C343.058 153.97 345.954 157.129 349.534 159.235C353.114 161.341 356.905 162.394 360.906 162.394C366.697 162.394 371.278 161.078 374.647 158.445C378.122 155.813 380.491 152.338 381.755 148.021H395.338C393.337 156.339 389.389 162.868 383.492 167.606C377.701 172.344 370.225 174.714 361.064 174.714ZM447.872 174.714C441.66 174.714 436.5 173.608 432.394 171.397C428.287 169.185 425.233 166.29 423.233 162.71C421.232 159.024 420.232 155.023 420.232 150.706C420.232 142.703 423.127 136.649 428.919 132.542C434.815 128.33 442.66 126.224 452.453 126.224H473.933V124.645C473.933 110.956 467.668 104.112 455.138 104.112C450.083 104.112 445.819 105.218 442.344 107.429C438.975 109.64 436.816 113.115 435.868 117.853H422.285C422.812 112.588 424.549 108.061 427.497 104.27C430.551 100.479 434.447 97.5835 439.185 95.5829C443.924 93.5823 449.241 92.5819 455.138 92.5819C466.299 92.5819 474.407 95.5302 479.461 101.427C484.621 107.218 487.201 114.958 487.201 124.645V172.818H475.829L474.723 160.656H473.617C471.301 164.447 468.195 167.764 464.299 170.607C460.508 173.345 455.032 174.714 447.872 174.714ZM450.241 163.026C455.296 163.026 459.56 161.815 463.035 159.393C466.615 156.971 469.3 153.759 471.09 149.758C472.986 145.757 473.933 141.387 473.933 136.649H453.558C446.398 136.649 441.344 137.86 438.396 140.281C435.553 142.703 434.131 145.915 434.131 149.916C434.131 154.023 435.5 157.234 438.238 159.551C440.975 161.867 444.977 163.026 450.241 163.026ZM515.095 172.818V161.446H535.154V109.798C535.154 107.166 533.891 105.849 531.364 105.849H517.149V94.4773H536.26C539.735 94.4773 542.525 95.4249 544.631 97.3203C546.737 99.2156 547.79 102.006 547.79 105.691V109.008H548.422C549.685 103.743 552.055 99.6895 555.529 96.8465C559.109 94.0034 564.058 92.5819 570.376 92.5819H584.749V106.639H568.481C562.058 106.639 557.109 108.798 553.634 113.115C550.159 117.327 548.422 122.75 548.422 129.383V161.446H573.061V172.818H515.095ZM637.283 174.714C631.071 174.714 625.911 173.608 621.805 171.397C617.698 169.185 614.645 166.29 612.644 162.71C610.643 159.024 609.643 155.023 609.643 150.706C609.643 142.703 612.539 136.649 618.33 132.542C624.227 128.33 632.071 126.224 641.864 126.224H663.344V124.645C663.344 110.956 657.079 104.112 644.549 104.112C639.495 104.112 635.23 105.218 631.755 107.429C628.386 109.64 626.227 113.115 625.28 117.853H611.696C612.223 112.588 613.96 108.061 616.908 104.27C619.962 100.479 623.858 97.5835 628.596 95.5829C633.335 93.5823 638.652 92.5819 644.549 92.5819C655.71 92.5819 663.818 95.5302 668.872 101.427C674.032 107.218 676.612 114.958 676.612 124.645V172.818H665.24L664.134 160.656H663.029C660.712 164.447 657.606 167.764 653.71 170.607C649.919 173.345 644.444 174.714 637.283 174.714ZM639.653 163.026C644.707 163.026 648.971 161.815 652.446 159.393C656.026 156.971 658.711 153.759 660.501 149.758C662.397 145.757 663.344 141.387 663.344 136.649H642.969C635.809 136.649 630.755 137.86 627.807 140.281C624.964 142.703 623.542 145.915 623.542 149.916C623.542 154.023 624.911 157.234 627.649 159.551C630.386 161.867 634.388 163.026 639.653 163.026ZM1024 174.714C1016.95 174.714 1010.63 173.081 1005.05 169.817C999.574 166.553 995.204 161.867 991.94 155.76C988.676 149.548 987.044 142.177 987.044 133.648C987.044 125.119 988.676 117.801 991.94 111.693C995.204 105.481 999.627 100.742 1005.21 97.4782C1010.89 94.214 1017.16 92.5819 1024 92.5819C1033.69 92.5819 1041.43 95.0038 1047.22 99.8474C1053.01 104.691 1056.7 111.167 1058.28 119.275H1044.69C1043.43 114.958 1041.01 111.535 1037.43 109.008C1033.85 106.376 1029.32 105.06 1023.85 105.06C1019.84 105.06 1016.05 106.113 1012.47 108.219C1008.89 110.324 1006 113.483 1003.79 117.695C1001.57 121.907 1000.47 127.225 1000.47 133.648C1000.47 140.071 1001.57 145.441 1003.79 149.758C1006 153.97 1008.89 157.129 1012.47 159.235C1016.05 161.341 1019.84 162.394 1023.85 162.394C1029.64 162.394 1034.22 161.078 1037.59 158.445C1041.06 155.813 1043.43 152.338 1044.69 148.021H1058.28C1056.28 156.339 1052.33 162.868 1046.43 167.606C1040.64 172.344 1033.16 174.714 1024 174.714ZM1117.44 174.714C1110.07 174.714 1103.55 173.029 1097.86 169.659C1092.17 166.29 1087.7 161.551 1084.43 155.444C1081.17 149.232 1079.54 141.966 1079.54 133.648C1079.54 125.329 1081.17 118.116 1084.43 112.009C1087.7 105.797 1092.17 101.006 1097.86 97.6362C1103.55 94.2667 1110.07 92.5819 1117.44 92.5819C1124.82 92.5819 1131.34 94.2667 1137.03 97.6362C1142.72 101.006 1147.19 105.797 1150.46 112.009C1153.72 118.116 1155.35 125.329 1155.35 133.648C1155.35 141.966 1153.72 149.232 1150.46 155.444C1147.19 161.551 1142.72 166.29 1137.03 169.659C1131.34 173.029 1124.82 174.714 1117.44 174.714ZM1117.44 162.078C1121.97 162.078 1126.08 161.078 1129.76 159.077C1133.45 157.076 1136.35 153.97 1138.45 149.758C1140.66 145.546 1141.77 140.176 1141.77 133.648C1141.77 127.119 1140.66 121.749 1138.45 117.537C1136.35 113.325 1133.45 110.219 1129.76 108.219C1126.08 106.218 1121.97 105.218 1117.44 105.218C1113.02 105.218 1108.97 106.218 1105.28 108.219C1101.6 110.219 1098.65 113.325 1096.44 117.537C1094.23 121.749 1093.12 127.119 1093.12 133.648C1093.12 143.44 1095.49 150.653 1100.23 155.286C1104.97 159.814 1110.71 162.078 1117.44 162.078ZM1209.47 174.714C1202.83 174.714 1196.88 173.134 1191.62 169.975C1186.46 166.816 1182.4 162.183 1179.46 156.076C1176.51 149.863 1175.03 142.335 1175.03 133.49C1175.03 124.75 1176.51 117.327 1179.46 111.219C1182.4 105.112 1186.46 100.479 1191.62 97.3203C1196.88 94.1614 1202.83 92.5819 1209.47 92.5819C1215.68 92.5819 1220.78 93.7928 1224.79 96.2147C1228.89 98.6365 1231.95 101.795 1233.95 105.691V59.0975H1247.21V172.818H1236.32L1234.89 160.656H1233.95C1231.84 164.974 1228.73 168.396 1224.63 170.923C1220.52 173.45 1215.47 174.714 1209.47 174.714ZM1211.2 162.078C1217.84 162.078 1223.31 159.761 1227.63 155.128C1231.95 150.39 1234.1 143.23 1234.1 133.648C1234.1 124.066 1231.95 116.958 1227.63 112.325C1223.31 107.587 1217.84 105.218 1211.2 105.218C1204.57 105.218 1199.09 107.587 1194.78 112.325C1190.56 116.958 1188.46 124.066 1188.46 133.648C1188.46 143.23 1190.56 150.39 1194.78 155.128C1199.09 159.761 1204.57 162.078 1211.2 162.078ZM1300.22 174.714C1294.01 174.714 1288.85 173.608 1284.74 171.397C1280.64 169.185 1277.58 166.29 1275.58 162.71C1273.58 159.024 1272.58 155.023 1272.58 150.706C1272.58 142.703 1275.48 136.649 1281.27 132.542C1287.17 128.33 1295.01 126.224 1304.8 126.224H1326.28V124.645C1326.28 110.956 1320.02 104.112 1307.49 104.112C1302.43 104.112 1298.17 105.218 1294.69 107.429C1291.32 109.64 1289.17 113.115 1288.22 117.853H1274.64C1275.16 112.588 1276.9 108.061 1279.85 104.27C1282.9 100.479 1286.8 97.5835 1291.54 95.5829C1296.27 93.5823 1301.59 92.5819 1307.49 92.5819C1318.65 92.5819 1326.76 95.5302 1331.81 101.427C1336.97 107.218 1339.55 114.958 1339.55 124.645V172.818H1328.18L1327.07 160.656H1325.97C1323.65 164.447 1320.54 167.764 1316.65 170.607C1312.86 173.345 1307.38 174.714 1300.22 174.714ZM1302.59 163.026C1307.65 163.026 1311.91 161.815 1315.39 159.393C1318.97 156.971 1321.65 153.759 1323.44 149.758C1325.34 145.757 1326.28 141.387 1326.28 136.649H1305.91C1298.75 136.649 1293.69 137.86 1290.75 140.281C1287.9 142.703 1286.48 145.915 1286.48 149.916C1286.48 154.023 1287.85 157.234 1290.59 159.551C1293.33 161.867 1297.33 163.026 1302.59 163.026Z" fill="white"/>
<path d="M760.893 207.566V161.13C758.892 164.921 755.944 168.133 752.048 170.765C748.257 173.397 743.098 174.714 736.569 174.714C729.936 174.714 723.986 173.134 718.722 169.975C713.562 166.816 709.455 162.183 706.402 156.076C703.453 149.969 701.979 142.545 701.979 133.806C701.979 124.961 703.453 117.485 706.402 111.377C709.455 105.165 713.509 100.479 718.564 97.3203C723.723 94.1614 729.462 92.5819 735.78 92.5819C741.992 92.5819 747.204 93.8981 751.416 96.5306C755.628 99.163 758.787 102.48 760.893 106.481H761.841L763.42 94.4773H774.16V207.566H760.893ZM738.307 162.078C744.941 162.078 750.416 159.761 754.733 155.128C759.05 150.39 761.209 143.23 761.209 133.648C761.209 124.066 759.05 116.958 754.733 112.325C750.416 107.587 744.941 105.218 738.307 105.218C731.673 105.218 726.198 107.587 721.88 112.325C717.563 116.958 715.405 124.066 715.405 133.648C715.405 143.23 717.563 150.39 721.88 155.128C726.198 159.761 731.673 162.078 738.307 162.078ZM827.8 174.714C818.323 174.714 811.163 171.871 806.32 166.185C801.476 160.498 799.054 152.285 799.054 141.545V94.4773H812.322V139.966C812.322 146.915 813.848 152.391 816.902 156.392C820.061 160.288 824.799 162.236 831.117 162.236C837.435 162.236 842.752 160.13 847.07 155.918C851.387 151.601 853.545 145.441 853.545 137.438V94.4773H866.813V172.818H855.757L854.335 160.972H853.545C851.439 164.763 848.122 168.027 843.595 170.765C839.067 173.397 833.802 174.714 827.8 174.714ZM928.824 174.714C921.453 174.714 914.924 173.029 909.238 169.659C903.658 166.185 899.235 161.394 895.971 155.286C892.707 149.074 891.075 141.861 891.075 133.648C891.075 125.435 892.654 118.274 895.813 112.167C899.077 105.955 903.552 101.164 909.238 97.7941C914.924 94.3193 921.558 92.5819 929.139 92.5819C936.721 92.5819 943.197 94.3193 948.567 97.7941C953.937 101.164 958.043 105.639 960.886 111.219C963.73 116.8 965.151 122.802 965.151 129.225C965.151 130.384 965.098 131.542 964.993 132.7C964.993 133.858 964.993 135.175 964.993 136.649H904.184C904.5 142.44 905.816 147.284 908.133 151.18C910.555 154.97 913.556 157.813 917.136 159.709C920.821 161.604 924.717 162.552 928.824 162.552C934.615 162.552 939.143 161.341 942.407 158.919C945.671 156.497 948.146 153.128 949.83 148.811H962.94C961.15 156.076 957.412 162.236 951.726 167.29C946.04 172.239 938.406 174.714 928.824 174.714ZM928.824 104.428C922.716 104.428 917.346 106.271 912.713 109.956C908.185 113.641 905.395 118.801 904.342 125.435H952.042C951.62 118.906 949.251 113.799 944.934 110.114C940.722 106.323 935.352 104.428 928.824 104.428Z" fill="#FFEA2C"/>
</svg>
