<svg width="1564" height="199" viewBox="0 0 1564 199" fill="none" xmlns="http://www.w3.org/2000/svg">
<path d="M156 95V36L251 111L156 183.5V125" stroke="#FFC700" stroke-width="15"/>
<path d="M126 75V16L31 91L126 163.5V105" stroke="#FFC700" stroke-width="15"/>
<path d="M414.458 171.626C402.182 171.626 391.226 168.656 381.59 162.716C372.086 156.776 364.562 148.46 359.018 137.768C353.606 126.944 350.9 114.338 350.9 99.95C350.9 85.43 353.606 72.824 359.018 62.132C364.562 51.44 372.086 43.124 381.59 37.184C391.226 31.244 402.182 28.274 414.458 28.274C427.79 28.274 439.67 31.838 450.098 38.966C460.526 45.962 468.314 55.994 473.462 69.062L460.592 72.824L458.414 72.428C454.322 62.66 448.514 55.268 440.99 50.252C433.466 45.236 424.82 42.728 415.052 42.728C405.68 42.728 397.298 45.038 389.906 49.658C382.514 54.278 376.706 60.878 372.482 69.458C368.258 78.038 366.146 88.202 366.146 99.95C366.146 111.698 368.258 121.862 372.482 130.442C376.706 139.022 382.514 145.622 389.906 150.242C397.298 154.862 405.68 157.172 415.052 157.172C424.82 157.172 433.466 154.664 440.99 149.648C448.514 144.5 454.322 137.108 458.414 127.472L460.592 127.076L473.462 130.838C468.314 143.906 460.526 154.004 450.098 161.132C439.67 168.128 427.79 171.626 414.458 171.626ZM564.737 169.25L514.643 34.808L513.257 30.65H528.107L580.775 167.666V169.25H564.737ZM460.589 169.25V167.666L513.257 30.65H528.107L526.721 34.808L476.627 169.25H460.589ZM479.993 132.62L485.933 118.166H557.411L563.351 132.62H479.993ZM575.862 169.25V30.65H590.712V169.25H575.862ZM584.376 112.622V97.97H626.154C634.47 97.97 641.004 95.66 645.756 91.04C650.508 86.288 652.884 79.82 652.884 71.636H668.922C668.922 84.044 665.028 94.01 657.24 101.534C649.452 108.926 639.09 112.622 626.154 112.622H584.376ZM652.884 71.636C652.884 63.452 650.508 57.05 645.756 52.43C641.004 47.678 634.47 45.302 626.154 45.302H584.376V30.65H626.154C639.09 30.65 649.452 34.346 657.24 41.738C665.028 49.13 668.922 59.096 668.922 71.636H652.884ZM653.676 169.25L619.422 109.058L632.886 102.722L669.912 167.666V169.25H653.676ZM761.136 169.25L711.042 34.808L709.656 30.65H724.506L777.174 167.666V169.25H761.136ZM656.988 169.25V167.666L709.656 30.65H724.506L723.12 34.808L673.026 169.25H656.988ZM676.392 132.62L682.332 118.166H753.81L759.75 132.62H676.392ZM1150.48 171.626C1138.21 171.626 1127.25 168.656 1117.62 162.716C1108.11 156.776 1100.59 148.46 1095.04 137.768C1089.63 126.944 1086.93 114.338 1086.93 99.95C1086.93 85.43 1089.63 72.824 1095.04 62.132C1100.59 51.44 1108.11 43.124 1117.62 37.184C1127.25 31.244 1138.21 28.274 1150.48 28.274C1163.82 28.274 1175.7 31.838 1186.12 38.966C1196.55 45.962 1204.34 55.994 1209.49 69.062L1196.62 72.824L1194.44 72.428C1190.35 62.66 1184.54 55.268 1177.02 50.252C1169.49 45.236 1160.85 42.728 1151.08 42.728C1141.71 42.728 1133.32 45.038 1125.93 49.658C1118.54 54.278 1112.73 60.878 1108.51 69.458C1104.28 78.038 1102.17 88.202 1102.17 99.95C1102.17 111.698 1104.28 121.862 1108.51 130.442C1112.73 139.022 1118.54 145.622 1125.93 150.242C1133.32 154.862 1141.71 157.172 1151.08 157.172C1160.85 157.172 1169.49 154.664 1177.02 149.648C1184.54 144.5 1190.35 137.108 1194.44 127.472L1196.62 127.076L1209.49 130.838C1204.34 143.906 1196.55 154.004 1186.12 161.132C1175.7 168.128 1163.82 171.626 1150.48 171.626ZM1269.9 171.626C1257.36 171.626 1246.14 168.656 1236.24 162.716C1226.34 156.644 1218.55 148.262 1212.87 137.57C1207.33 126.746 1204.56 114.206 1204.56 99.95C1204.56 85.694 1207.33 73.22 1212.87 62.528C1218.55 51.704 1226.34 43.322 1236.24 37.382C1246.14 31.31 1257.36 28.274 1269.9 28.274C1282.57 28.274 1293.79 31.31 1303.56 37.382C1313.46 43.322 1321.18 51.704 1326.72 62.528C1332.4 73.22 1335.24 85.694 1335.24 99.95C1335.24 114.206 1332.4 126.746 1326.72 137.57C1321.18 148.262 1313.46 156.644 1303.56 162.716C1293.79 168.656 1282.57 171.626 1269.9 171.626ZM1269.9 157.172C1279.4 157.172 1287.92 154.796 1295.44 150.044C1303.1 145.292 1309.1 138.626 1313.46 130.046C1317.81 121.466 1319.99 111.434 1319.99 99.95C1319.99 88.334 1317.81 78.236 1313.46 69.656C1309.1 61.076 1303.1 54.476 1295.44 49.856C1287.92 45.104 1279.4 42.728 1269.9 42.728C1260.39 42.728 1251.88 45.104 1244.36 49.856C1236.83 54.476 1230.83 61.076 1226.34 69.656C1221.98 78.236 1219.8 88.334 1219.8 99.95C1219.8 111.434 1221.98 121.466 1226.34 130.046C1230.83 138.626 1236.83 145.292 1244.36 150.044C1251.88 154.796 1260.39 157.172 1269.9 157.172ZM1346.28 169.25V154.796H1385.68C1395.71 154.796 1404.23 152.552 1411.22 148.064C1418.35 143.444 1423.76 137.042 1427.46 128.858C1431.29 120.674 1433.2 111.038 1433.2 99.95C1433.2 88.73 1431.29 79.028 1427.46 70.844C1423.76 62.66 1418.35 56.324 1411.22 51.836C1404.23 47.348 1395.71 45.104 1385.68 45.104H1346.28V30.65H1385.68C1398.75 30.65 1409.97 33.554 1419.34 39.362C1428.71 45.17 1435.91 53.288 1440.92 63.716C1445.94 74.012 1448.45 86.09 1448.45 99.95C1448.45 113.81 1445.94 125.954 1440.92 136.382C1435.91 146.678 1428.71 154.73 1419.34 160.538C1409.97 166.346 1398.75 169.25 1385.68 169.25H1346.28ZM1339.15 169.25V30.65H1354V169.25H1339.15ZM1535.64 169.25L1485.55 34.808L1484.16 30.65H1499.01L1551.68 167.666V169.25H1535.64ZM1431.49 169.25V167.666L1484.16 30.65H1499.01L1497.62 34.808L1447.53 169.25H1431.49ZM1450.9 132.62L1456.84 118.166H1528.31L1534.25 132.62H1450.9Z" fill="white"/>
<path d="M874.969 169.25L827.647 115.394L838.339 105.296L892.987 167.666V169.25H874.969ZM825.667 171.626C813.127 171.626 801.907 168.656 792.007 162.716C782.107 156.644 774.319 148.262 768.643 137.57C763.099 126.746 760.327 114.206 760.327 99.95C760.327 85.694 763.099 73.22 768.643 62.528C774.319 51.704 782.107 43.322 792.007 37.382C801.907 31.31 813.127 28.274 825.667 28.274C838.339 28.274 849.559 31.31 859.327 37.382C869.227 43.322 876.949 51.704 882.493 62.528C888.169 73.22 891.007 85.694 891.007 99.95C891.007 114.206 888.169 126.746 882.493 137.57C876.949 148.262 869.227 156.644 859.327 162.716C849.559 168.656 838.339 171.626 825.667 171.626ZM825.667 157.172C835.171 157.172 843.685 154.796 851.209 150.044C858.865 145.292 864.871 138.626 869.227 130.046C873.583 121.466 875.761 111.434 875.761 99.95C875.761 88.334 873.583 78.236 869.227 69.656C864.871 61.076 858.865 54.476 851.209 49.856C843.685 45.104 835.171 42.728 825.667 42.728C816.163 42.728 807.649 45.104 800.125 49.856C792.601 54.476 786.595 61.076 782.107 69.656C777.751 78.236 775.573 88.334 775.573 99.95C775.573 111.434 777.751 121.466 782.107 130.046C786.595 138.626 792.601 145.292 800.125 150.044C807.649 154.796 816.163 157.172 825.667 157.172ZM943.232 171.626C932.804 171.626 923.828 169.514 916.304 165.29C908.78 161.066 902.972 154.994 898.88 147.074C894.92 139.022 892.94 129.386 892.94 118.166V30.65H907.79V118.562C907.79 130.97 910.826 140.54 916.898 147.272C922.97 153.872 931.748 157.172 943.232 157.172C954.716 157.172 963.494 153.872 969.566 147.272C975.638 140.54 978.674 130.97 978.674 118.562V30.65H993.524V118.166C993.524 129.386 991.478 139.022 987.386 147.074C983.426 154.994 977.684 161.066 970.16 165.29C962.636 169.514 953.66 171.626 943.232 171.626ZM1001.53 169.25V30.65H1016.38V169.25H1001.53ZM1009.25 169.25V154.796H1088.85V169.25H1009.25ZM1009.25 106.286V91.832H1084.89V106.286H1009.25ZM1009.25 45.104V30.65H1088.85V45.104H1009.25Z" fill="#FFC700"/>
</svg>
