<svg
    xmlns="http://www.w3.org/2000/svg"
    width="184"
    height="36"
    fill="none"
    viewBox="0 0 184 36"
  >
    <path
      fill="#0A0A0A"
      fillRule="evenodd"
      d="M2.881 6.033C6.388 3.045 11.931 3.585 15 7c3.069-3.415 8.612-3.955 12.119-.967s3.862 8.18.793 11.595L16.488 30.344a2 2 0 0 1-2.976 0L2.088 17.628C-.981 14.213-.625 9.022 2.88 6.033"
      clipRule="evenodd"
    ></path>
    <path
      stroke="#fff"
      strokeLinecap="round"
      strokeLinejoin="round"
      strokeWidth="3"
      d="M11 17v.5M19 17v.5"
    ></path>
    <path
      stroke="#fff"
      strokeLinecap="round"
      strokeLinejoin="round"
      d="M12 23s.75-1 3-1 3 1 3 1"
    ></path>
    <path
      fill="#0A0A0A"
      d="M47.65 12.254q-1.155 1.23-1.841 1.231-.762 0-1.359-.977a3.9 3.9 0 0 1-.584-2.044q0-1.08.508-1.879a5.4 5.4 0 0 1 1.371-1.435 9.5 9.5 0 0 1 1.943-1.079 16 16 0 0 1 2.285-.749q2.336-.596 3.922-.596 1.6 0 2.68.14 1.079.127 2.081.43 1.004.306 1.892.788a6.5 6.5 0 0 1 1.561 1.143q1.422 1.46 1.422 3.643 0 2.26-1.422 4.634a12.1 12.1 0 0 1-3.554 3.809q-2.324 1.586-4.685 1.586-1.155 0-2.031-.57-.42-.293-.432-.674a6 6 0 0 1 .013-.71q.102-1.308.571-3.073.927.38 1.98.38 1.054 0 1.753-.215a7.3 7.3 0 0 0 1.396-.635q.711-.405 1.358-.964.66-.56 1.169-1.245 1.104-1.497 1.104-2.843 0-1.347-.622-2.12a4.4 4.4 0 0 0-1.574-1.257q-1.815-.902-4.482-.902-2.297 0-4.697.927-1.675.66-2.412 1.676-.381.533-.381 1.168 0 1.434 1.066 2.412M42.9 24.162q.648-.685 1.524-2.374a285 285 0 0 0 1.498-2.945q.622-1.244 1.295-2.552.685-1.308 1.396-2.59.725-1.295 1.46-2.437 1.637-2.514 2.996-3.53a.5.5 0 0 1 .33-.127q.19 0 .381.064.42.14.737.432-1.587 1.27-3.276 6.665a206 206 0 0 0-.94 3.021q-.456 1.498-.888 2.895-.42 1.396-.838 2.462-.9 2.35-1.612 2.35-2.247 0-3.517-.915a10 10 0 0 1-.546-.419M64.775 25q-2.767 0-2.767-3.161 0-2.679 2.958-6.856 2.602-3.669 5.637-6.144 1.917-1.562 2.83-1.562.674 0 1.194.622.57.66.571 1.359 0 .686-.304 1.244a5.6 5.6 0 0 1-.8 1.104q-.495.56-1.18 1.105-.674.546-1.436 1.028-1.573 1.015-3.084 1.524a37 37 0 0 0-1.08 2.678q2.565-2.31 5.98-3.224 1.092-.292 1.84-.292.75 0 .902.266.153.254.05.686a4.2 4.2 0 0 1-.355.978q-.267.545-.545 1.13-.699 1.51-.699 2.158 0 1.332.85 1.333.94 0 2.096-.851a7.9 7.9 0 0 0 1.802-1.93q.572-.038.572.47 0 .406-.534 1.32-.52.902-1.028 1.562t-1.142 1.308q-.635.635-1.359 1.13-1.624 1.13-3.123 1.13-1.498 0-2.133-.762-.621-.775-.622-2.21 0-1.84 2.222-4.608.686-.85.597-.85-1.017 0-3.085 1.27-2.197 1.344-3.098 2.64a20.3 20.3 0 0 0-.622 3.897q0 .508-1.105.508m4.33-11.21q1.636-.75 2.818-1.79 1.18-1.066 1.18-1.84 0-.382-.152-.7-.14-.33-.38-.33-.23 0-.597.344-.368.342-.826.952-.965 1.27-2.043 3.364m12.593 11.274-.254.012q-2.006 0-3.06-.99-.99-.927-.99-2.514 0-2.184 1.74-4.177a9 9 0 0 1 4.1-2.704q-.075-.57.42-.939.355-.267 1.167-.267.826 0 1.587.153.762.152 1.536.672 1.676 1.105 1.676 2.971a7.8 7.8 0 0 1-1.003 3.834q2.184-.47 3.822-2.92.57-.038.57.47 0 .203-.126.495-1.727 4.1-6.906 5.434-1.854.482-4.215.482zm-.216-5.561q0 1.473 1.232 1.473 1.04 0 2.095-1.257 1.104-1.308 1.104-2.654 0-1.371-1.32-1.815-2.272.634-2.907 2.844a4.9 4.9 0 0 0-.204 1.409m14.968-4.735q1.701-1.003 3.314-1.003 2.564 0 3.224 1.955.203.596.203 1.485 0 1.93-1.421 3.974 1.193-.165 2.31-.94 1.117-.787 1.942-2.044.572-.038.572.47 0 .203-.127.495-2.412 5.853-11.718 5.853h-.025q-1.715 0-2.831-1.003-1.22-1.105-1.22-3.085 0-2.438 4.444-8.81 1.879-2.717 3.212-4.241.369-.42.99-.419.686 0 1.003.508-2.615 4.1-3.872 6.805m-1.307 3.516q-.165.8-.165 1.346t.33.927q.33.368.85.368.533 0 1.08-.178a5.6 5.6 0 0 0 1.066-.508q.52-.317.99-.736a6 6 0 0 0 .825-.927q.762-1.066.762-2.018 0-.61-.305-.927-.508-.534-1.142-.533-.622 0-1.27.266a4.9 4.9 0 0 0-1.219.698q-1.231.927-1.802 2.222m19.22-7.287q-.52.254-1.13.394a5 5 0 0 1-1.041.127q-.444 0-.799-.102a2.2 2.2 0 0 1-.635-.317q-.61-.445-.61-1.067t.216-1.053q.229-.432.648-.737.901-.66 2.158-.66 1.27 0 1.841.52.584.521.584 1.194t-.356 1.054-.876.647m-9.775 12.53q-.267-.57-.267-1.396 0-.838.356-1.765.367-.927.927-1.84.57-.926 1.269-1.778.699-.863 1.384-1.523 1.51-1.435 2.222-1.435.305 0 .672.267.381.254.483.38-1.917 2.058-2.425 3.974-.165.584-.165 1.143 0 .546.419.99.419.432 1.041.432.623 0 1.155-.229.546-.24 1.067-.622a7.9 7.9 0 0 0 1.802-1.93q.572-.038.572.47 0 .42-.534 1.32-.52.902-1.041 1.562-.52.647-1.193 1.282-.66.635-1.447 1.13-1.765 1.117-3.631 1.117-1.968 0-2.666-1.549m15.818-.558Q118.667 25 116.166 25q-1.587 0-2.539-.952-.939-.94-.939-2.476 0-1.943 1.523-3.77 1.473-1.777 3.859-2.895 2.476-1.155 5.117-1.155 1.002 0 1.434.317.343-.405.609-.47.28-.076.432-.076.482 0 1.028.14-.05.165-.215.571-.165.394-.369.94a77 77 0 0 0-.431 1.193q-.825 2.31-.825 3.466 0 1.143.723 1.143.94 0 2.095-.851a7.9 7.9 0 0 0 1.803-1.93q.571-.038.571.47 0 .432-.533 1.32a15 15 0 0 1-1.016 1.537q-.495.646-1.104 1.269t-1.295 1.117Q124.558 25 123.098 25q-1.853 0-2.489-1.117-.203-.344-.203-.597zm-3.631-3.466q0 1.473 1.232 1.473 1.358 0 3.199-2.197a28 28 0 0 0 1.701-2.234q.737-1.067 1.117-1.625-3.173.026-5.268 1.447-1.98 1.346-1.981 3.136"
    ></path>
  </svg>